<?xml version="1.0" encoding="UTF-8"?>
<svg id="Layer_2" data-name="Layer 2"
  xmlns="http://www.w3.org/2000/svg" width="256.41095" height="256.41095" viewBox="0 0 256.41095 256.41095">
  <defs>
    <style>
      .cls-1 {
        fill: #06f;
      }

      .cls-2 {
        fill: #2d2d2d;
      }

      .cls-3 {
        fill: #fff;
        opacity: 0;
      }
    </style>
  </defs>
  <g id="Layer_1-2" data-name="Layer 1">
    <rect class="cls-3" width="256.41095" height="256.41095"/>
    <g>
      <path class="cls-1" d="m128.20547,119.5068c-42.40026,0-83.21149-12.65195-118.02156-36.58722l-3.08219-2.11949c-2.55329-1.75579-3.19986-5.24895-1.44419-7.80232l4.23879-6.16469c1.75567-2.55337,5.2488-3.2001,7.80225-1.44454l3.08251,2.1193c31.67828,21.78247,68.82501,33.29592,107.42439,33.29592s75.7455-11.51345,107.42378-33.29592l3.08251-2.1193c2.55345-1.75556,6.04658-1.10882,7.80225,1.44454l4.23879,6.16469c1.75567,2.55337,1.1091,6.04653-1.44419,7.80232l-3.08219,2.11949c-34.81006,23.93527-75.6213,36.58722-118.02095,36.58722Z"/>
      <path class="cls-2" d="m244.62238,192.19113H11.78856c-7.64637,0-13.26745-7.17002-11.44234-14.59538l7.21144-29.3393c1.84958-7.5249,8.59733-12.81493,16.3462-12.81493h208.60322c7.74887,0,14.49662,5.29004,16.3462,12.81493l7.21144,29.3393c1.82511,7.42536-3.79597,14.59538-11.44234,14.59538Zm-224.00629-18.70304h215.17875l-4.7543-19.34352H25.3704l-4.7543,19.34352Z"/>
    </g>
  </g>
</svg>