<?xml version="1.0" encoding="UTF-8"?>
<svg id="Layer_2" data-name="Layer 2" xmlns="http://www.w3.org/2000/svg" width="132.07993" height="28.87914" viewBox="0 0 132.07993 28.87914">
  <defs>
    <style>
      .cls-1 {
        fill: #06f;
      }

      .cls-2 {
        fill: #2d2d2d;
      }
    </style>
  </defs>
  <g id="Layer_1-2" data-name="Layer 1">
    <g>
      <g>
        <path class="cls-1" d="m22.66536,12.86658c-7.49591,0-14.7109-2.23673-20.86495-6.46823l-.5449-.3747c-.45139-.3104-.5657-.92796-.25532-1.37937l.74937-1.08985c.31038-.45141.92793-.56574,1.37935-.25538l.54495.37467c5.60038,3.85091,12.16753,5.88636,18.99149,5.88636s13.391-2.03546,18.99138-5.88636l.54495-.37467c.45142-.31036,1.06897-.19603,1.37935.25538l.74937,1.08985c.31038.45141.19608,1.06896-.25532,1.37937l-.5449.3747c-6.15405,4.2315-13.36904,6.46823-20.86484,6.46823Z"/>
        <path class="cls-2" d="m43.24663,25.7164H2.08409c-1.3518,0-2.34554-1.26758-2.02288-2.58031l1.27491-5.18687c.32699-1.33032,1.51992-2.26554,2.88983-2.26554h36.87882c1.36992,0,2.56285.93522,2.88983,2.26554l1.27491,5.18687c.32266,1.31272-.67109,2.58031-2.02288,2.58031ZM3.64471,22.4099h38.04131l-.84051-3.41973H4.48522l-.84051,3.41973Z"/>
      </g>
      <g>
        <g>
          <path class="cls-2" d="m61.23262,10.91229v7.09838c0,1.41376.79524,2.09126,2.17961,2.09126.30923,0,.59363-.03315.8594-.09011.61718-.13229,1.20237.32452,1.20237.95572v1.04542c0,.41587-.25845.7903-.64951.93177-.6231.22542-1.28397.33815-2.08975.33815-3.23993,0-4.80092-1.82618-4.80092-4.74205v-7.62854h-1.5411c-.54784,0-.99195-.44411-.99195-.99195v-1.02044c0-.54784.44411-.99195.99195-.99195h1.5411v-2.89588c0-.54784.44411-.99195.99195-.99195h1.3149c.54784,0,.99195.44411.99195.99195v2.89588h3.24943c.54784,0,.99195.44411.99195.99195v1.02044c0,.54784-.44411.99195-.99195.99195h-3.24943Z"/>
          <path class="cls-2" d="m81.37446,7.90794c.71265,0,1.19279.7291.91128,1.38379l-7.09251,16.49471c-.82473,1.94403-2.47407,3.0927-4.30025,3.0927-.97745,0-2.09521-.35089-3.00131-.91723-.43829-.27394-.59286-.83861-.3554-1.29769l.41473-.80181c.24861-.48065.83617-.67255,1.3211-.43239.34006.16842.71539.26806,1.09072.26806.73637,0,1.38438-.38293,1.79669-1.26653l.79524-1.67883-5.69125-13.46667c-.27638-.65398.20372-1.3781.9137-1.3781h1.60105c.40629,0,.7715.24776.92169.62526l4.11036,10.33157,4.13913-10.33372c.15075-.37637.51539-.62311.92083-.62311h1.5042Z"/>
          <path class="cls-2" d="m100.07114,15.41874c0,4.47697-3.18095,7.86413-7.39284,7.86413-2.20911,0-4.06466-.94247-5.3017-2.53305v6.78393c0,.54784-.44411.99195-.99195.99195h-1.31501c-.54784,0-.99195-.44411-.99195-.99195V8.89989c0-.54784.44411-.99195.99195-.99195h1.31501c.54784,0,.99195.44411.99195.99195v1.18767c1.23704-1.59048,3.09259-2.53305,5.3017-2.53305,4.21189,0,7.39284,3.38727,7.39284,7.86424Zm-3.41665,0c0-2.6509-1.9734-4.68318-4.6242-4.68318s-4.65369,2.03227-4.65369,4.68318,2.00278,4.68318,4.65369,4.68318,4.6242-2.03239,4.6242-4.68318Z"/>
          <path class="cls-2" d="m103.80247,7.90794h1.31501c.54784,0,.99195.44411.99195.99195v13.03759c0,.54784-.44411.99195-.99195.99195h-1.31501c-.54784,0-.99195-.44411-.99195-.99195v-13.03759c0-.54784.44411-.99195.99195-.99195Z"/>
          <path class="cls-2" d="m109.10152,20.21267l.52236-.71149c.31697-.43174.9241-.54057,1.36083-.23051,1.02186.72546,2.25686,1.1552,3.73469,1.1552,1.67895,0,2.97485-.58914,2.97485-1.64946,0-1.17817-1.47274-1.56098-3.23993-1.9734-2.4152-.55965-5.44892-1.3254-5.44892-4.6242,0-3.0927,2.73915-4.62431,5.97908-4.62431,1.98354,0,3.60731.58685,4.85629,1.38114.48475.30828.59998.96699.25623,1.42727l-.54673.73204c-.31029.41546-.88791.52149-1.32557.2434-.90016-.57197-1.96975-.92683-3.18124-.92683-1.47274,0-2.68039.50078-2.68039,1.53161,0,1.17817,1.44325,1.53161,3.26942,1.94403,2.4152.53016,5.41955,1.29591,5.41955,4.56533,0,3.12208-2.76864,4.83041-6.27365,4.83041-2.26497,0-4.06674-.70476-5.43866-1.66479-.45912-.32128-.56984-.9537-.2382-1.40541Z"/>
          <path class="cls-2" d="m127.83855,10.91229v7.09838c0,1.41376.79524,2.09126,2.17961,2.09126.30923,0,.59363-.03315.8594-.09011.61718-.13229,1.20237.32452,1.20237.95572v1.04542c0,.41587-.25845.7903-.64951.93177-.6231.22542-1.28397.33815-2.08975.33815-3.23993,0-4.80092-1.82618-4.80092-4.74205v-7.62854h-1.5411c-.54784,0-.99195-.44411-.99195-.99195v-1.02044c0-.54784.44411-.99195.99195-.99195h1.5411v-2.89588c0-.54784.44411-.99195.99195-.99195h1.3149c.54784,0,.99195.44411.99195.99195v2.89588h3.24943c.54784,0,.99195.44411.99195.99195v1.02044c0,.54784-.44411.99195-.99195.99195h-3.24943Z"/>
        </g>
        <circle class="cls-1" cx="104.47466" cy="2.82122" r="2.82122"/>
      </g>
    </g>
  </g>
</svg>